<svg width="64" height="64" xmlns="http://www.w3.org/2000/svg">
    <g>
        <title>Water</title>
        <g stroke="null" id="svg_6">
            <path fill="#409eff" stroke="null" id="svg_1"
                d="m31.86847,56.34341c-9.62593,0 -17.45844,-7.83174 -17.45844,-17.45767c0,-0.66971 0.04733,-1.35961 0.14822,-2.16281c0.50985,-7.7456 5.91182,-17.06499 16.05692,-27.69898l1.30451,-1.36738l1.34098,1.32857c0.56108,0.55409 13.72495,13.70476 15.70693,26.36887c0.23825,1.16405 0.36008,2.35061 0.36008,3.53173c0,9.62593 -7.83251,17.45767 -17.45921,17.45767zm0.09701,-43.34151c-8.69003,9.40398 -13.30122,17.47706 -13.7102,24.01205l-0.01164,0.1195c-0.08536,0.66972 -0.12572,1.22769 -0.12572,1.75228c0,7.58186 6.16869,13.75055 13.75055,13.75055c7.58263,0 13.75055,-6.16869 13.75055,-13.75055c0,-0.94288 -0.09701,-1.89275 -0.29179,-2.82243l-0.0163,-0.09701c-1.42791,-9.25343 -10.01938,-19.34886 -13.34546,-22.9644z" />
            <path fill="#409eff" stroke="null" id="svg_2"
                d="m12.55608,37.95839c0,-0.66972 0.04734,-1.35806 0.14745,-2.16281c0.39733,-6.02125 3.76376,-12.99779 10.0023,-20.79927c-2.86278,-3.82585 -5.48035,-6.41703 -5.48035,-6.41703c-9.18514,9.62903 -12.56477,16.7763 -12.89614,22.05411a12.95201,12.95201 0 0 0 -0.11563,1.64674c0,6.04298 4.14636,11.10117 9.74544,12.52597a17.3529,17.3529 0 0 1 -1.40307,-6.84772zm38.88784,0c0,-0.66972 -0.04733,-1.35806 -0.14822,-2.16281c-0.39655,-6.02125 -3.76298,-12.99779 -10.0023,-20.79927c2.86279,-3.82585 5.48036,-6.41703 5.48036,-6.41703c9.18669,9.62826 12.56555,16.7763 12.89691,22.05411c0.06907,0.54012 0.11563,1.088 0.11563,1.64674c0,6.04298 -4.14635,11.10117 -9.74544,12.52597a17.3529,17.3529 0 0 0 1.40307,-6.84772zm-17.10301,12.12864c-3.06766,0 -5.56184,-2.49495 -5.56184,-5.56262c0,-3.06611 2.49417,-5.56106 5.56184,-5.56106c3.06688,0 5.56261,2.49495 5.56261,5.56106c0,3.06766 -2.49573,5.56262 -5.56261,5.56262zm0,-9.2705c-2.04407,0 -3.70712,1.66303 -3.70712,3.70711s1.66381,3.70867 3.70712,3.70867c2.04485,0 3.70789,-1.66459 3.70789,-3.70867s-1.66381,-3.70711 -3.70789,-3.70711zm7.24273,-0.46329a2.14574,2.14574 0 0 1 -2.14341,-2.14497a2.14651,2.14651 0 0 1 2.14341,-2.1434a2.14729,2.14729 0 0 1 2.1434,2.1434a2.14729,2.14729 0 0 1 -2.1434,2.14497zm0,-3.36023c-0.67128,0 -1.21683,0.54555 -1.21683,1.21527a1.21837,1.21837 0 0 0 1.21683,1.21682a1.21837,1.21837 0 0 0 1.21604,-1.21682a1.21837,1.21837 0 0 0 -1.21604,-1.21527z" />
        </g>
    </g>
</svg>